<?xml version="1.0" encoding="UTF-8"?> <svg xmlns="http://www.w3.org/2000/svg" id="Camada_2" data-name="Camada 2" viewBox="0 0 248.48 248.61"><defs><style> .cls-1 { fill: #fff; stroke-width: 0px; } </style></defs><g id="Camada_1-2" data-name="Camada 1"><g><path class="cls-1" d="m23.67,248.61h-5.83c-.61-.18-1.21-.4-1.83-.55-10.91-2.72-17.93-14.03-15.55-24.98,1.43-6.57,5.11-11.79,9.75-16.43,16.13-16.13,32.27-32.26,48.4-48.39,3.85-3.85,4-4.46,1.33-9.2-7.1-12.65-11.43-26.14-12.64-40.62-2.03-24.36,4.07-46.57,18.37-66.28C82.22,19.35,104.55,5.63,132.49,1.28c19.02-2.96,37.55-.85,55.03,7.05,34.42,15.55,54.42,42.28,60.01,79.7.38,2.54.63,5.09.94,7.64v10.2c-.13.78-.33,1.56-.38,2.35-.71,11.07-3.22,21.75-7.6,31.91-11.22,26-30.16,44.24-56.35,54.81-15.45,6.23-31.61,7.98-48.11,5.9-13.12-1.66-25.45-5.89-36.96-12.46-4.18-2.39-5.12-2.2-8.45,1.13-16.19,16.19-32.35,32.41-48.6,48.53-2.39,2.37-5.02,4.67-7.93,6.32-3.24,1.83-6.93,2.88-10.43,4.26ZM222.18,100.82c0-40.96-33.28-74.28-74.41-74.51-40.91-.23-74.61,33.45-74.58,74.53.03,41.16,33.51,74.58,74.6,74.46,41.07-.12,74.4-33.49,74.39-74.48Z"></path><path class="cls-1" d="m183.98,55.21c-.04,7.21-6.9,12.13-13.88,9.64-6.54-2.33-13.14-4.11-20.12-3.55-17.22,1.38-30.04,9.59-37.93,25.07-1.93,3.79-3.98,7.3-8.55,8.18-4.06.78-7.56-.38-10.17-3.64-2.67-3.34-3.03-7.09-1.3-10.93,8.8-19.48,23.55-32.06,44.2-37.52,13.89-3.67,27.55-2.43,40.86,2.86,4.36,1.73,6.9,5.43,6.88,9.88Z"></path></g></g></svg> 